%TF.GenerationSoftware,KiCad,Pcbnew,7.99.0-1211-g2ac3f4cc9e*%
%TF.CreationDate,Date%
%TF.ProjectId,adidas,61646964-6173-42e6-9b69-6361645f7063,v0.3*%
%TF.SameCoordinates,Original*%
%TF.FileFunction,Soldermask,Top*%
%TF.FilePolarity,Negative*%
%FSLAX46Y46*%
G04 Gerber Fmt 4.6, Leading zero omitted, Abs format (unit mm)*
G04 Created by KiCad*
%MOMM*%
%LPD*%
G01*
G04 APERTURE LIST*
G04 Aperture macros list*
%AMRoundRect*
0 Rectangle with rounded corners*
0 $1 Rounding radius*
0 $2 $3 $4 $5 $6 $7 $8 $9 X,Y pos of 4 corners*
0 Add a 4 corners polygon primitive as box body*
4,1,4,$2,$3,$4,$5,$6,$7,$8,$9,$2,$3,0*
0 Add four circle primitives for the rounded corners*
1,1,$1+$1,$2,$3*
1,1,$1+$1,$4,$5*
1,1,$1+$1,$6,$7*
1,1,$1+$1,$8,$9*
0 Add four rect primitives between the rounded corners*
20,1,$1+$1,$2,$3,$4,$5,0*
20,1,$1+$1,$4,$5,$6,$7,0*
20,1,$1+$1,$6,$7,$8,$9,0*
20,1,$1+$1,$8,$9,$2,$3,0*%
G04 Aperture macros list end*
%ADD10C,4.500000*%
%ADD11RoundRect,0.250000X-0.375000X-0.625000X0.375000X-0.625000X0.375000X0.625000X-0.375000X0.625000X0*%
%ADD12R,1.700000X1.700000*%
%ADD13O,1.700000X1.700000*%
%ADD14R,1.950000X1.950000*%
%ADD15C,1.950000*%
G04 APERTURE END LIST*
D10*
%TO.C,hole1*%
X234924600Y-75666600D03*
%TD*%
D11*
%TO.C,D2*%
X163753800Y-128625600D03*
X166553800Y-128625600D03*
%TD*%
D10*
%TO.C,hole2*%
X95656400Y-76047600D03*
%TD*%
D11*
%TO.C,D5*%
X144571500Y-117322600D03*
X147371500Y-117322600D03*
%TD*%
%TO.C,D12*%
X222529400Y-106324400D03*
X225329400Y-106324400D03*
%TD*%
%TO.C,D4*%
X115008400Y-117094000D03*
X117808400Y-117094000D03*
%TD*%
%TO.C,D6*%
X182904700Y-116763800D03*
X185704700Y-116763800D03*
%TD*%
%TO.C,D10*%
X163036600Y-106146600D03*
X165836600Y-106146600D03*
%TD*%
%TO.C,D8*%
X105331000Y-105689400D03*
X108131000Y-105689400D03*
%TD*%
%TO.C,D9*%
X131518400Y-105968800D03*
X134318400Y-105968800D03*
%TD*%
%TO.C,D11*%
X193621200Y-106172000D03*
X196421200Y-106172000D03*
%TD*%
%TO.C,D3*%
X198574200Y-128981200D03*
X201374200Y-128981200D03*
%TD*%
%TO.C,D7*%
X212595200Y-117170200D03*
X215395200Y-117170200D03*
%TD*%
%TO.C,D1*%
X130109800Y-128879600D03*
X132909800Y-128879600D03*
%TD*%
D12*
%TO.C,J2*%
X162483800Y-63017400D03*
D13*
X162483800Y-65557400D03*
X165023800Y-63017400D03*
X165023800Y-65557400D03*
X167563800Y-63017400D03*
X167563800Y-65557400D03*
%TD*%
D12*
%TO.C,J4*%
X146887800Y-133725600D03*
D13*
X146887800Y-136265600D03*
%TD*%
D14*
%TO.C,S2*%
X234619800Y-83674100D03*
D15*
X234619800Y-90174100D03*
%TD*%
D14*
%TO.C,S1*%
X164769800Y-134620000D03*
D15*
X164769800Y-141120000D03*
%TD*%
D12*
%TO.C,J1*%
X119339600Y-88930400D03*
D13*
X119339600Y-86390400D03*
X116799600Y-88930400D03*
X116799600Y-86390400D03*
X114259600Y-88930400D03*
X114259600Y-86390400D03*
%TD*%
D12*
%TO.C,J3*%
X187985400Y-135966200D03*
D13*
X185445400Y-135966200D03*
X182905400Y-135966200D03*
X180365400Y-135966200D03*
%TD*%
M02*
