%TF.GenerationSoftware,KiCad,Pcbnew,7.99.0-1211-g2ac3f4cc9e*%
%TF.CreationDate,2023-06-01T18:32:40-04:00*%
%TF.ProjectId,adidas,61646964-6173-42e6-9b69-6361645f7063,v0.3*%
%TF.SameCoordinates,Original*%
%TF.FileFunction,Soldermask,Bot*%
%TF.FilePolarity,Negative*%
%FSLAX46Y46*%
G04 Gerber Fmt 4.6, Leading zero omitted, Abs format (unit mm)*
G04 Created by KiCad (PCBNEW 7.99.0-1211-g2ac3f4cc9e) date 2023-06-01 18:32:40*
%MOMM*%
%LPD*%
G01*
G04 APERTURE LIST*
G04 Aperture macros list*
%AMRoundRect*
0 Rectangle with rounded corners*
0 $1 Rounding radius*
0 $2 $3 $4 $5 $6 $7 $8 $9 X,Y pos of 4 corners*
0 Add a 4 corners polygon primitive as box body*
4,1,4,$2,$3,$4,$5,$6,$7,$8,$9,$2,$3,0*
0 Add four circle primitives for the rounded corners*
1,1,$1+$1,$2,$3*
1,1,$1+$1,$4,$5*
1,1,$1+$1,$6,$7*
1,1,$1+$1,$8,$9*
0 Add four rect primitives between the rounded corners*
20,1,$1+$1,$2,$3,$4,$5,0*
20,1,$1+$1,$4,$5,$6,$7,0*
20,1,$1+$1,$6,$7,$8,$9,0*
20,1,$1+$1,$8,$9,$2,$3,0*%
G04 Aperture macros list end*
%ADD10C,4.500000*%
%ADD11RoundRect,0.250000X-0.625000X0.312500X-0.625000X-0.312500X0.625000X-0.312500X0.625000X0.312500X0*%
%ADD12RoundRect,0.250000X-0.312500X-0.625000X0.312500X-0.625000X0.312500X0.625000X-0.312500X0.625000X0*%
%ADD13R,1.700000X1.700000*%
%ADD14O,1.700000X1.700000*%
%ADD15RoundRect,0.250000X0.312500X0.625000X-0.312500X0.625000X-0.312500X-0.625000X0.312500X-0.625000X0*%
%ADD16R,1.950000X1.950000*%
%ADD17C,1.950000*%
%ADD18RoundRect,0.041300X-0.253700X0.943700X-0.253700X-0.943700X0.253700X-0.943700X0.253700X0.943700X0*%
%ADD19R,5.100000X5.100000*%
%ADD20C,17.800000*%
%ADD21R,0.790000X0.260000*%
%ADD22R,0.260000X0.790000*%
G04 APERTURE END LIST*
D10*
%TO.C,hole1*%
X234924600Y-75666600D03*
%TD*%
%TO.C,hole2*%
X95656400Y-76047600D03*
%TD*%
D11*
%TO.C,R5*%
X102350000Y-93980000D03*
X102350000Y-96905000D03*
%TD*%
%TO.C,R4*%
X99060000Y-93980000D03*
X99060000Y-96905000D03*
%TD*%
%TO.C,R9*%
X218440000Y-95057500D03*
X218440000Y-97982500D03*
%TD*%
%TO.C,R12*%
X228310000Y-95057500D03*
X228310000Y-97982500D03*
%TD*%
%TO.C,R13*%
X231600000Y-95057500D03*
X231600000Y-97982500D03*
%TD*%
D12*
%TO.C,R3*%
X200660000Y-91440000D03*
X203585000Y-91440000D03*
%TD*%
D11*
%TO.C,R10*%
X221730000Y-95057500D03*
X221730000Y-97982500D03*
%TD*%
D13*
%TO.C,J2*%
X162483800Y-63017400D03*
D14*
X162483800Y-65557400D03*
X165023800Y-63017400D03*
X165023800Y-65557400D03*
X167563800Y-63017400D03*
X167563800Y-65557400D03*
%TD*%
D11*
%TO.C,R8*%
X112220000Y-93980000D03*
X112220000Y-96905000D03*
%TD*%
%TO.C,R6*%
X105640000Y-93980000D03*
X105640000Y-96905000D03*
%TD*%
D15*
%TO.C,R14*%
X227522500Y-76200000D03*
X224597500Y-76200000D03*
%TD*%
D13*
%TO.C,J4*%
X146887800Y-133725600D03*
D14*
X146887800Y-136265600D03*
%TD*%
D11*
%TO.C,R11*%
X225020000Y-95057500D03*
X225020000Y-97982500D03*
%TD*%
D16*
%TO.C,S2*%
X234619800Y-83674100D03*
D17*
X234619800Y-90174100D03*
%TD*%
D15*
%TO.C,R2*%
X203585000Y-93980000D03*
X200660000Y-93980000D03*
%TD*%
D11*
%TO.C,R7*%
X108930000Y-93980000D03*
X108930000Y-96905000D03*
%TD*%
D16*
%TO.C,S1*%
X164769800Y-134620000D03*
D17*
X164769800Y-141120000D03*
%TD*%
D18*
%TO.C,U2*%
X219710000Y-81280000D03*
X220980000Y-81280000D03*
X222250000Y-81280000D03*
X223520000Y-81280000D03*
X224790000Y-81280000D03*
X226060000Y-81280000D03*
X227330000Y-81280000D03*
X227330000Y-86220000D03*
X226060000Y-86220000D03*
X224790000Y-86220000D03*
X223520000Y-86220000D03*
X222250000Y-86220000D03*
X220980000Y-86220000D03*
X219710000Y-86220000D03*
%TD*%
D19*
%TO.C,BT1*%
X152198400Y-91668600D03*
X177798400Y-91668600D03*
D20*
X164998400Y-91668600D03*
%TD*%
D15*
%TO.C,R1*%
X203585000Y-96520000D03*
X200660000Y-96520000D03*
%TD*%
D13*
%TO.C,J1*%
X119339600Y-88930400D03*
D14*
X119339600Y-86390400D03*
X116799600Y-88930400D03*
X116799600Y-86390400D03*
X114259600Y-88930400D03*
X114259600Y-86390400D03*
%TD*%
D13*
%TO.C,J3*%
X187985400Y-135966200D03*
D14*
X185445400Y-135966200D03*
X182905400Y-135966200D03*
X180365400Y-135966200D03*
%TD*%
D21*
%TO.C,U1*%
X166796000Y-128177200D03*
X166796000Y-128677200D03*
X166796000Y-129177200D03*
X166796000Y-129677200D03*
X166796000Y-130177200D03*
X166796000Y-130677200D03*
D22*
X166076000Y-131397200D03*
X165576000Y-131397200D03*
X165076000Y-131397200D03*
X164576000Y-131397200D03*
X164076000Y-131397200D03*
X163576000Y-131397200D03*
D21*
X162856000Y-130677200D03*
X162856000Y-130177200D03*
X162856000Y-129677200D03*
X162856000Y-129177200D03*
X162856000Y-128677200D03*
X162856000Y-128177200D03*
D22*
X163576000Y-127457200D03*
X164076000Y-127457200D03*
X164576000Y-127457200D03*
X165076000Y-127457200D03*
X165576000Y-127457200D03*
X166076000Y-127457200D03*
%TD*%
M02*
