%TF.GenerationSoftware,KiCad,Pcbnew,7.99.0-1211-g2ac3f4cc9e*%
%TF.CreationDate,2023-06-01T18:32:40-04:00*%
%TF.ProjectId,adidas,61646964-6173-42e6-9b69-6361645f7063,v0.3*%
%TF.SameCoordinates,Original*%
%TF.FileFunction,Profile,NP*%
%FSLAX46Y46*%
G04 Gerber Fmt 4.6, Leading zero omitted, Abs format (unit mm)*
G04 Created by KiCad (PCBNEW 7.99.0-1211-g2ac3f4cc9e) date 2023-06-01 18:32:40*
%MOMM*%
%LPD*%
G01*
G04 APERTURE LIST*
%TA.AperFunction,Profile*%
%ADD10C,0.100000*%
%TD*%
G04 APERTURE END LIST*
D10*
X159750000Y-138970000D02*
X161300000Y-141170000D01*
X221570000Y-120370000D02*
X221750000Y-120170000D01*
X130700000Y-88340000D02*
X128600000Y-86370000D01*
X184770000Y-142860000D02*
X186510000Y-142380000D01*
X89260000Y-77080000D02*
X89380000Y-78340000D01*
X158120000Y-46930000D02*
X157240000Y-48350000D01*
X146850000Y-73650000D02*
X146460000Y-75470000D01*
X157470000Y-135480000D02*
X158500000Y-137100000D01*
X94330000Y-97290000D02*
X94820000Y-98530000D01*
X241200000Y-75200000D02*
X241400000Y-71110000D01*
X195080000Y-139250000D02*
X197100000Y-138300000D01*
X109850000Y-121650000D02*
X111610000Y-123420000D01*
X153730000Y-134900000D02*
X153340000Y-132000000D01*
X95630000Y-100370000D02*
X96390000Y-102000000D01*
X140860000Y-100410000D02*
X139960000Y-99110000D01*
X144920000Y-94910000D02*
X145090000Y-97900000D01*
X189540000Y-100080000D02*
X188730000Y-101270000D01*
X198970000Y-88830000D02*
X196660000Y-91140000D01*
X175940000Y-139490000D02*
X175870000Y-140560000D01*
X176880000Y-131800000D02*
X176630000Y-133510000D01*
X181620000Y-67480000D02*
X181220000Y-66130000D01*
X184600000Y-80910000D02*
X184310000Y-78870000D01*
X144990000Y-87060000D02*
X144850000Y-89200000D01*
X159700000Y-44610000D02*
X158120000Y-46930000D01*
X100000000Y-108520000D02*
X100080000Y-108720000D01*
X148700000Y-66840000D02*
X147710000Y-70220000D01*
X186510000Y-142380000D02*
X186940000Y-142260000D01*
X175760000Y-144810000D02*
X176470000Y-144670000D01*
X226370000Y-114450000D02*
X227510000Y-112820000D01*
X199020000Y-137410000D02*
X199710000Y-137030000D01*
X184880000Y-83170000D02*
X184600000Y-80910000D01*
X162190000Y-142320000D02*
X164320000Y-145030000D01*
X201370000Y-136140000D02*
X202680000Y-135430000D01*
X239530000Y-68140000D02*
X235650000Y-68920000D01*
X185310000Y-91480000D02*
X185220000Y-87610000D01*
X175870000Y-140560000D02*
X175840000Y-141240000D01*
X230210000Y-108580000D02*
X233410000Y-102810000D01*
X236720000Y-95090000D02*
X237770000Y-92090000D01*
X165120000Y-37810000D02*
X164980000Y-37930000D01*
X139960000Y-99110000D02*
X139170000Y-98000000D01*
X138170000Y-96660000D02*
X137550000Y-95840000D01*
X127820000Y-135700000D02*
X132080000Y-137950000D01*
X163330000Y-39790000D02*
X162070000Y-41400000D01*
X161300000Y-141170000D02*
X162190000Y-142320000D01*
X95150000Y-99330000D02*
X95630000Y-100370000D01*
X183500000Y-74550000D02*
X182620000Y-70920000D01*
X154320000Y-144640000D02*
X154390000Y-144430000D01*
X182160000Y-143550000D02*
X182750000Y-143420000D01*
X176000000Y-53740000D02*
X175500000Y-52810000D01*
X132080000Y-137950000D02*
X135430000Y-139440000D01*
X144870000Y-90610000D02*
X144870000Y-91540000D01*
X150370000Y-62140000D02*
X150130000Y-62730000D01*
X93100000Y-94060000D02*
X93460000Y-95090000D01*
X113390000Y-75910000D02*
X111800000Y-75090000D01*
X94620000Y-68970000D02*
X92840000Y-68600000D01*
X197100000Y-138300000D02*
X199020000Y-137410000D01*
X101340000Y-70810000D02*
X98470000Y-69920000D01*
X215780000Y-126080000D02*
X216730000Y-125180000D01*
X127310000Y-85250000D02*
X126170000Y-84280000D01*
X216730000Y-125180000D02*
X218390000Y-123650000D01*
X155930000Y-50510000D02*
X155320000Y-51610000D01*
X89380000Y-78340000D02*
X89480000Y-78930000D01*
X229620000Y-109650000D02*
X230120000Y-108800000D01*
X93460000Y-95090000D02*
X93820000Y-96000000D01*
X182460000Y-70270000D02*
X181620000Y-67480000D01*
X106950000Y-72840000D02*
X106210000Y-72580000D01*
X235490000Y-98240000D02*
X236170000Y-96620000D01*
X164980000Y-37930000D02*
X164700000Y-38190000D01*
X154140000Y-144770000D02*
X154290000Y-144740000D01*
X109130000Y-120910000D02*
X109850000Y-121650000D01*
X173480000Y-49250000D02*
X171580000Y-46200000D01*
X154100000Y-138310000D02*
X153730000Y-134900000D01*
X234220000Y-101150000D02*
X235490000Y-98240000D01*
X218390000Y-123650000D02*
X219830000Y-122220000D01*
X139500000Y-141020000D02*
X143740000Y-142440000D01*
X219830000Y-122220000D02*
X221010000Y-120990000D01*
X151770000Y-144340000D02*
X154140000Y-144770000D01*
X237770000Y-92090000D02*
X238560000Y-89450000D01*
X134030000Y-91760000D02*
X133440000Y-91120000D01*
X153340000Y-132000000D02*
X155350000Y-131900000D01*
X91740000Y-89740000D02*
X92050000Y-90950000D01*
X199710000Y-137030000D02*
X201370000Y-136140000D01*
X89620000Y-67990000D02*
X88760000Y-67780000D01*
X95800000Y-69240000D02*
X94620000Y-68970000D01*
X144850000Y-89200000D02*
X144870000Y-90610000D01*
X184490000Y-102760000D02*
X184800000Y-100520000D01*
X157240000Y-48350000D02*
X155930000Y-50510000D01*
X151800000Y-58610000D02*
X150810000Y-61060000D01*
X90270000Y-83700000D02*
X90690000Y-85680000D01*
X196660000Y-91140000D02*
X192920000Y-95360000D01*
X211640000Y-78800000D02*
X207170000Y-81800000D01*
X192770000Y-140190000D02*
X194880000Y-139330000D01*
X177940000Y-57700000D02*
X177140000Y-56040000D01*
X160660000Y-43240000D02*
X159700000Y-44610000D01*
X214050000Y-77390000D02*
X211640000Y-78800000D01*
X191910000Y-96690000D02*
X190620000Y-98450000D01*
X145510000Y-101440000D02*
X145680000Y-102720000D01*
X206220000Y-82570000D02*
X202870000Y-85210000D01*
X155670000Y-132510000D02*
X156010000Y-133070000D01*
X175840000Y-141240000D02*
X175790000Y-142450000D01*
X103590000Y-114080000D02*
X103850000Y-114460000D01*
X126170000Y-84280000D02*
X125020000Y-83390000D01*
X158500000Y-137100000D02*
X159750000Y-138970000D01*
X108900000Y-120660000D02*
X109130000Y-120910000D01*
X236170000Y-96620000D02*
X236720000Y-95090000D01*
X103000000Y-71360000D02*
X101340000Y-70810000D01*
X102060000Y-111850000D02*
X102550000Y-112620000D01*
X175790000Y-142450000D02*
X175760000Y-143890000D01*
X227510000Y-112820000D02*
X228870000Y-110810000D01*
X188730000Y-101270000D02*
X187780000Y-102760000D01*
X149340000Y-65020000D02*
X148700000Y-66840000D01*
X154360000Y-142770000D02*
X154230000Y-140200000D01*
X100080000Y-108720000D02*
X100230000Y-108990000D01*
X178810000Y-144270000D02*
X180230000Y-143980000D01*
X89480000Y-78930000D02*
X89750000Y-80800000D01*
X111120000Y-74740000D02*
X107560000Y-73120000D01*
X139170000Y-98000000D02*
X138170000Y-96660000D01*
X145090000Y-97900000D02*
X145510000Y-101440000D01*
X202680000Y-135430000D02*
X202820000Y-135360000D01*
X133440000Y-91120000D02*
X132450000Y-90130000D01*
X154290000Y-144740000D02*
X154320000Y-144640000D01*
X221750000Y-120170000D02*
X226370000Y-114450000D01*
X190620000Y-98450000D02*
X189730000Y-99790000D01*
X150810000Y-61060000D02*
X150370000Y-62140000D01*
X96850000Y-102900000D02*
X100000000Y-108520000D01*
X173940000Y-50000000D02*
X173480000Y-49250000D01*
X175760000Y-143890000D02*
X175760000Y-144810000D01*
X114990000Y-76750000D02*
X113390000Y-75910000D01*
X111610000Y-123420000D02*
X112650000Y-124420000D01*
X221010000Y-120990000D02*
X221570000Y-120370000D01*
X138940000Y-140820000D02*
X139500000Y-141020000D01*
X89940000Y-82040000D02*
X90060000Y-82790000D01*
X88850000Y-71020000D02*
X88970000Y-74070000D01*
X204560000Y-134290000D02*
X206450000Y-133110000D01*
X184910000Y-83470000D02*
X184880000Y-83170000D01*
X231030000Y-70110000D02*
X227080000Y-71410000D01*
X202820000Y-135360000D02*
X204560000Y-134290000D01*
X149910000Y-63360000D02*
X149340000Y-65020000D01*
X174860000Y-131890000D02*
X176880000Y-131800000D01*
X103850000Y-114460000D02*
X108590000Y-120210000D01*
X206450000Y-133110000D02*
X207730000Y-132270000D01*
X89060000Y-74830000D02*
X89260000Y-77080000D01*
X185220000Y-87610000D02*
X184910000Y-83470000D01*
X98470000Y-69920000D02*
X97220000Y-69600000D01*
X191080000Y-140870000D02*
X192770000Y-140190000D01*
X184940000Y-98950000D02*
X185200000Y-96010000D01*
X208390000Y-131830000D02*
X215780000Y-126080000D01*
X184310000Y-78870000D02*
X183680000Y-75390000D01*
X154400000Y-144300000D02*
X154360000Y-142770000D01*
X134680000Y-92450000D02*
X134030000Y-91760000D01*
X90920000Y-86740000D02*
X91270000Y-88050000D01*
X132450000Y-90130000D02*
X130700000Y-88340000D01*
X176300000Y-135970000D02*
X175940000Y-139490000D01*
X124130000Y-133440000D02*
X127820000Y-135700000D01*
X88970000Y-74070000D02*
X89060000Y-74830000D01*
X142380000Y-102720000D02*
X141900000Y-101970000D01*
X239030000Y-87780000D02*
X239980000Y-83690000D01*
X145430000Y-82070000D02*
X145140000Y-84700000D01*
X93820000Y-96000000D02*
X94330000Y-97290000D01*
X88820000Y-69950000D02*
X88850000Y-71020000D01*
X154490000Y-53170000D02*
X153740000Y-54580000D01*
X154390000Y-144430000D02*
X154400000Y-144300000D01*
X125020000Y-83390000D02*
X122380000Y-81420000D01*
X175500000Y-52810000D02*
X173940000Y-50000000D01*
X89750000Y-80800000D02*
X89940000Y-82040000D01*
X118730000Y-78990000D02*
X117340000Y-78140000D01*
X182750000Y-143420000D02*
X184770000Y-142860000D01*
X169100000Y-42650000D02*
X167650000Y-40820000D01*
X128600000Y-86370000D02*
X127310000Y-85250000D01*
X146200000Y-76820000D02*
X145810000Y-79460000D01*
X145140000Y-84700000D02*
X145090000Y-85200000D01*
X180570000Y-64270000D02*
X179720000Y-61920000D01*
X182620000Y-70920000D02*
X182460000Y-70270000D01*
X135430000Y-139440000D02*
X138940000Y-140820000D01*
X164320000Y-145030000D02*
X165870000Y-145030000D01*
X180230000Y-143980000D02*
X182160000Y-143550000D01*
X121640000Y-131770000D02*
X124130000Y-133440000D01*
X183680000Y-75390000D02*
X183500000Y-74550000D01*
X241400000Y-71110000D02*
X241460000Y-67900000D01*
X169740000Y-140000000D02*
X171410000Y-137580000D01*
X156810000Y-134400000D02*
X157470000Y-135480000D01*
X144850000Y-93630000D02*
X144920000Y-94910000D01*
X241460000Y-67900000D02*
X241450000Y-67770000D01*
X141900000Y-101970000D02*
X140860000Y-100410000D01*
X88760000Y-67780000D02*
X88780000Y-68570000D01*
X120510000Y-80170000D02*
X119790000Y-79690000D01*
X103290000Y-113670000D02*
X103590000Y-114080000D01*
X117340000Y-78140000D02*
X115990000Y-77340000D01*
X202870000Y-85210000D02*
X201300000Y-86600000D01*
X185200000Y-96010000D02*
X185310000Y-92010000D01*
X106210000Y-72580000D02*
X103000000Y-71360000D01*
X168050000Y-142280000D02*
X169740000Y-140000000D01*
X240600000Y-67960000D02*
X239530000Y-68140000D01*
X207170000Y-81800000D02*
X206220000Y-82570000D01*
X90060000Y-82790000D02*
X90270000Y-83700000D01*
X166290000Y-39100000D02*
X165860000Y-38610000D01*
X238560000Y-89450000D02*
X239030000Y-87780000D01*
X174000000Y-133420000D02*
X174860000Y-131890000D01*
X147870000Y-143520000D02*
X151770000Y-144340000D01*
X101360000Y-110810000D02*
X102060000Y-111850000D01*
X142380000Y-102720000D02*
X145680000Y-102720000D01*
X171580000Y-46200000D02*
X170960000Y-45320000D01*
X91270000Y-88050000D02*
X91740000Y-89740000D01*
X228870000Y-110810000D02*
X229620000Y-109650000D01*
X240600000Y-80060000D02*
X240710000Y-79360000D01*
X92520000Y-92310000D02*
X93100000Y-94060000D01*
X145090000Y-85200000D02*
X144990000Y-87060000D01*
X153740000Y-54580000D02*
X153300000Y-55470000D01*
X144870000Y-91540000D02*
X144850000Y-93630000D01*
X179720000Y-61920000D02*
X178570000Y-59190000D01*
X172360000Y-136090000D02*
X174000000Y-133420000D01*
X114360000Y-126100000D02*
X121640000Y-131770000D01*
X102550000Y-112620000D02*
X102840000Y-113020000D01*
X150130000Y-62730000D02*
X149910000Y-63360000D01*
X188660000Y-141680000D02*
X191080000Y-140870000D01*
X91060000Y-68250000D02*
X89620000Y-67990000D01*
X165860000Y-38610000D02*
X165120000Y-37810000D01*
X164220000Y-38730000D02*
X163330000Y-39790000D01*
X92050000Y-90950000D02*
X92520000Y-92310000D01*
X108590000Y-120210000D02*
X108900000Y-120660000D01*
X96390000Y-102000000D02*
X96850000Y-102900000D01*
X145620000Y-80540000D02*
X145530000Y-81270000D01*
X155320000Y-51610000D02*
X154490000Y-53170000D01*
X170960000Y-45320000D02*
X169100000Y-42650000D01*
X164700000Y-38190000D02*
X164220000Y-38730000D01*
X112650000Y-124420000D02*
X114360000Y-126100000D01*
X92840000Y-68600000D02*
X91060000Y-68250000D01*
X186940000Y-142260000D02*
X188660000Y-141680000D01*
X111800000Y-75090000D02*
X111120000Y-74740000D01*
X147710000Y-70220000D02*
X146850000Y-73650000D01*
X241450000Y-67770000D02*
X240600000Y-67960000D01*
X189730000Y-99790000D02*
X189540000Y-100080000D01*
X181220000Y-66130000D02*
X180570000Y-64270000D01*
X155350000Y-131900000D02*
X155670000Y-132510000D01*
X90690000Y-85680000D02*
X90920000Y-86740000D01*
X97220000Y-69600000D02*
X95800000Y-69240000D01*
X102840000Y-113020000D02*
X103290000Y-113670000D01*
X230120000Y-108800000D02*
X230210000Y-108580000D01*
X171410000Y-137580000D02*
X172360000Y-136090000D01*
X94820000Y-98530000D02*
X95150000Y-99330000D01*
X192920000Y-95360000D02*
X191910000Y-96690000D01*
X235280000Y-69000000D02*
X231030000Y-70110000D01*
X145530000Y-81270000D02*
X145430000Y-82070000D01*
X100230000Y-108990000D02*
X100580000Y-109570000D01*
X145810000Y-79460000D02*
X145620000Y-80540000D01*
X219170000Y-74640000D02*
X215330000Y-76650000D01*
X194880000Y-139330000D02*
X195080000Y-139250000D01*
X107560000Y-73120000D02*
X106950000Y-72840000D01*
X201300000Y-86600000D02*
X198970000Y-88830000D01*
X115990000Y-77340000D02*
X114990000Y-76750000D01*
X178570000Y-59190000D02*
X177940000Y-57700000D01*
X240710000Y-79360000D02*
X241200000Y-75200000D01*
X185310000Y-92010000D02*
X185310000Y-91480000D01*
X162070000Y-41400000D02*
X160660000Y-43240000D01*
X137550000Y-95840000D02*
X136710000Y-94800000D01*
X215330000Y-76650000D02*
X214050000Y-77390000D01*
X233410000Y-102810000D02*
X234220000Y-101150000D01*
X235650000Y-68920000D02*
X235280000Y-69000000D01*
X177140000Y-56040000D02*
X176000000Y-53740000D01*
X119790000Y-79690000D02*
X118730000Y-78990000D01*
X153300000Y-55470000D02*
X152420000Y-57350000D01*
X165870000Y-145030000D02*
X168050000Y-142280000D01*
X176630000Y-133510000D02*
X176300000Y-135970000D01*
X167650000Y-40820000D02*
X166290000Y-39100000D01*
X184800000Y-100520000D02*
X184940000Y-98950000D01*
X154230000Y-140200000D02*
X154100000Y-138310000D01*
X207730000Y-132270000D02*
X208390000Y-131830000D01*
X100580000Y-109570000D02*
X100930000Y-110140000D01*
X136710000Y-94800000D02*
X135620000Y-93500000D01*
X146460000Y-75470000D02*
X146200000Y-76820000D01*
X176470000Y-144670000D02*
X178810000Y-144270000D01*
X122380000Y-81420000D02*
X120510000Y-80170000D01*
X152420000Y-57350000D02*
X151800000Y-58610000D01*
X223280000Y-72870000D02*
X219170000Y-74640000D01*
X239980000Y-83690000D02*
X240600000Y-80060000D01*
X187780000Y-102760000D02*
X184490000Y-102760000D01*
X135620000Y-93500000D02*
X134680000Y-92450000D01*
X143740000Y-142440000D02*
X147870000Y-143520000D01*
X227080000Y-71410000D02*
X223280000Y-72870000D01*
X88780000Y-68570000D02*
X88820000Y-69950000D01*
X156010000Y-133070000D02*
X156810000Y-134400000D01*
X100930000Y-110140000D02*
X101360000Y-110810000D01*
M02*
