%TF.GenerationSoftware,KiCad,Pcbnew,7.99.0-1211-g2ac3f4cc9e*%
%TF.CreationDate,2023-06-01T18:32:39-04:00*%
%TF.ProjectId,adidas,61646964-6173-42e6-9b69-6361645f7063,v0.3*%
%TF.SameCoordinates,Original*%
%TF.FileFunction,Copper,L2,Bot*%
%TF.FilePolarity,Positive*%
%FSLAX46Y46*%
G04 Gerber Fmt 4.6, Leading zero omitted, Abs format (unit mm)*
G04 Created by KiCad (PCBNEW 7.99.0-1211-g2ac3f4cc9e) date 2023-06-01 18:32:39*
%MOMM*%
%LPD*%
G01*
G04 APERTURE LIST*
G04 Aperture macros list*
%AMRoundRect*
0 Rectangle with rounded corners*
0 $1 Rounding radius*
0 $2 $3 $4 $5 $6 $7 $8 $9 X,Y pos of 4 corners*
0 Add a 4 corners polygon primitive as box body*
4,1,4,$2,$3,$4,$5,$6,$7,$8,$9,$2,$3,0*
0 Add four circle primitives for the rounded corners*
1,1,$1+$1,$2,$3*
1,1,$1+$1,$4,$5*
1,1,$1+$1,$6,$7*
1,1,$1+$1,$8,$9*
0 Add four rect primitives between the rounded corners*
20,1,$1+$1,$2,$3,$4,$5,0*
20,1,$1+$1,$4,$5,$6,$7,0*
20,1,$1+$1,$6,$7,$8,$9,0*
20,1,$1+$1,$8,$9,$2,$3,0*%
G04 Aperture macros list end*
%TA.AperFunction,SMDPad,CuDef*%
%ADD10RoundRect,0.250000X-0.625000X0.312500X-0.625000X-0.312500X0.625000X-0.312500X0.625000X0.312500X0*%
%TD*%
%TA.AperFunction,SMDPad,CuDef*%
%ADD11RoundRect,0.250000X-0.312500X-0.625000X0.312500X-0.625000X0.312500X0.625000X-0.312500X0.625000X0*%
%TD*%
%TA.AperFunction,ComponentPad*%
%ADD12R,1.700000X1.700000*%
%TD*%
%TA.AperFunction,ComponentPad*%
%ADD13O,1.700000X1.700000*%
%TD*%
%TA.AperFunction,SMDPad,CuDef*%
%ADD14RoundRect,0.250000X0.312500X0.625000X-0.312500X0.625000X-0.312500X-0.625000X0.312500X-0.625000X0*%
%TD*%
%TA.AperFunction,ComponentPad*%
%ADD15R,1.950000X1.950000*%
%TD*%
%TA.AperFunction,ComponentPad*%
%ADD16C,1.950000*%
%TD*%
%TA.AperFunction,SMDPad,CuDef*%
%ADD17RoundRect,0.041300X-0.253700X0.943700X-0.253700X-0.943700X0.253700X-0.943700X0.253700X0.943700X0*%
%TD*%
%TA.AperFunction,SMDPad,CuDef*%
%ADD18R,5.100000X5.100000*%
%TD*%
%TA.AperFunction,SMDPad,CuDef*%
%ADD19C,17.800000*%
%TD*%
%TA.AperFunction,SMDPad,CuDef*%
%ADD20R,0.790000X0.260000*%
%TD*%
%TA.AperFunction,SMDPad,CuDef*%
%ADD21R,0.260000X0.790000*%
%TD*%
%TA.AperFunction,ViaPad*%
%ADD22C,0.800000*%
%TD*%
%TA.AperFunction,Conductor*%
%ADD23C,0.250000*%
%TD*%
G04 APERTURE END LIST*
D10*
%TO.P,R5,1*%
%TO.N,/3(LED Mid Row)*%
X102350000Y-93980000D03*
%TO.P,R5,2*%
%TO.N,Net-(D5-Pad2)*%
X102350000Y-96905000D03*
%TD*%
%TO.P,R4,1*%
%TO.N,/3(LED Mid Row)*%
X99060000Y-93980000D03*
%TO.P,R4,2*%
%TO.N,Net-(D4-Pad2)*%
X99060000Y-96905000D03*
%TD*%
%TO.P,R9,1*%
%TO.N,/5(LED Top Row)*%
X218440000Y-95057500D03*
%TO.P,R9,2*%
%TO.N,Net-(D9-Pad2)*%
X218440000Y-97982500D03*
%TD*%
%TO.P,R12,1*%
%TO.N,/5(LED Top Row)*%
X228310000Y-95057500D03*
%TO.P,R12,2*%
%TO.N,Net-(D12-Pad2)*%
X228310000Y-97982500D03*
%TD*%
%TO.P,R13,1*%
%TO.N,VDD*%
X231600000Y-95057500D03*
%TO.P,R13,2*%
%TO.N,/4(RST)*%
X231600000Y-97982500D03*
%TD*%
D11*
%TO.P,R3,1*%
%TO.N,/2(LED Bottom Row)*%
X200660000Y-91440000D03*
%TO.P,R3,2*%
%TO.N,Net-(D3-Pad2)*%
X203585000Y-91440000D03*
%TD*%
D10*
%TO.P,R10,1*%
%TO.N,/5(LED Top Row)*%
X221730000Y-95057500D03*
%TO.P,R10,2*%
%TO.N,Net-(D10-Pad2)*%
X221730000Y-97982500D03*
%TD*%
D12*
%TO.P,J2,1,Pin_1*%
%TO.N,VDD*%
X162483800Y-63017400D03*
D13*
%TO.P,J2,2,Pin_2*%
%TO.N,GND*%
X162483800Y-65557400D03*
%TO.P,J2,3,Pin_3*%
%TO.N,/7(SDA)*%
X165023800Y-63017400D03*
%TO.P,J2,4,Pin_4*%
%TO.N,/9(SCK)*%
X165023800Y-65557400D03*
%TO.P,J2,5,Pin_5*%
%TO.N,/12(SAO2)*%
X167563800Y-63017400D03*
%TO.P,J2,6,Pin_6*%
%TO.N,/13(SAO1)*%
X167563800Y-65557400D03*
%TD*%
D10*
%TO.P,R8,1*%
%TO.N,/5(LED Top Row)*%
X112220000Y-93980000D03*
%TO.P,R8,2*%
%TO.N,Net-(D8-Pad2)*%
X112220000Y-96905000D03*
%TD*%
%TO.P,R6,1*%
%TO.N,/3(LED Mid Row)*%
X105640000Y-93980000D03*
%TO.P,R6,2*%
%TO.N,Net-(D6-Pad2)*%
X105640000Y-96905000D03*
%TD*%
D14*
%TO.P,R14,1*%
%TO.N,/13(SAO1)*%
X227522500Y-76200000D03*
%TO.P,R14,2*%
%TO.N,VDD*%
X224597500Y-76200000D03*
%TD*%
D12*
%TO.P,J4,1,Pin_1*%
%TO.N,VDD*%
X146887800Y-133725600D03*
D13*
%TO.P,J4,2,Pin_2*%
%TO.N,GND*%
X146887800Y-136265600D03*
%TD*%
D10*
%TO.P,R11,1*%
%TO.N,/5(LED Top Row)*%
X225020000Y-95057500D03*
%TO.P,R11,2*%
%TO.N,Net-(D11-Pad2)*%
X225020000Y-97982500D03*
%TD*%
D15*
%TO.P,S2,1*%
%TO.N,/13(SAO1)*%
X234619800Y-83674100D03*
D16*
%TO.P,S2,2*%
%TO.N,GND*%
X234619800Y-90174100D03*
%TD*%
D14*
%TO.P,R2,1*%
%TO.N,/2(LED Bottom Row)*%
X203585000Y-93980000D03*
%TO.P,R2,2*%
%TO.N,Net-(D2-Pad2)*%
X200660000Y-93980000D03*
%TD*%
D10*
%TO.P,R7,1*%
%TO.N,/3(LED Mid Row)*%
X108930000Y-93980000D03*
%TO.P,R7,2*%
%TO.N,Net-(D7-Pad2)*%
X108930000Y-96905000D03*
%TD*%
D15*
%TO.P,S1,1*%
%TO.N,/4(RST)*%
X164769800Y-134620000D03*
D16*
%TO.P,S1,2*%
%TO.N,GND*%
X164769800Y-141120000D03*
%TD*%
D17*
%TO.P,U2,1,VCC*%
%TO.N,VDD*%
X219710000Y-81280000D03*
%TO.P,U2,2,PB0*%
%TO.N,/2(LED Bottom Row)*%
X220980000Y-81280000D03*
%TO.P,U2,3,PB1*%
%TO.N,/3(LED Mid Row)*%
X222250000Y-81280000D03*
%TO.P,U2,4,PB3*%
%TO.N,/4(RST)*%
X223520000Y-81280000D03*
%TO.P,U2,5,PB2*%
%TO.N,/5(LED Top Row)*%
X224790000Y-81280000D03*
%TO.P,U2,6,PA7*%
%TO.N,unconnected-(U2-PA7-Pad6)*%
X226060000Y-81280000D03*
%TO.P,U2,7,PA6*%
%TO.N,/7(SDA)*%
X227330000Y-81280000D03*
%TO.P,U2,8,PA5*%
%TO.N,/8(MOSI)*%
X227330000Y-86220000D03*
%TO.P,U2,9,PA4*%
%TO.N,/9(SCK)*%
X226060000Y-86220000D03*
%TO.P,U2,10,PA3*%
%TO.N,unconnected-(U2-PA3-Pad10)*%
X224790000Y-86220000D03*
%TO.P,U2,11,PA2*%
%TO.N,unconnected-(U2-PA2-Pad11)*%
X223520000Y-86220000D03*
%TO.P,U2,12,PA1*%
%TO.N,/12(SAO2)*%
X222250000Y-86220000D03*
%TO.P,U2,13,PA0*%
%TO.N,/13(SAO1)*%
X220980000Y-86220000D03*
%TO.P,U2,14,GND*%
%TO.N,GND*%
X219710000Y-86220000D03*
%TD*%
D18*
%TO.P,BT1,1,+*%
%TO.N,VDD*%
X152198400Y-91668600D03*
X177798400Y-91668600D03*
D19*
%TO.P,BT1,2,-*%
%TO.N,GND*%
X164998400Y-91668600D03*
%TD*%
D14*
%TO.P,R1,1*%
%TO.N,/2(LED Bottom Row)*%
X203585000Y-96520000D03*
%TO.P,R1,2*%
%TO.N,Net-(D1-Pad2)*%
X200660000Y-96520000D03*
%TD*%
D12*
%TO.P,J1,1,Pin_1*%
%TO.N,/8(MOSI)*%
X119339600Y-88930400D03*
D13*
%TO.P,J1,2,Pin_2*%
%TO.N,VDD*%
X119339600Y-86390400D03*
%TO.P,J1,3,Pin_3*%
%TO.N,/9(SCK)*%
X116799600Y-88930400D03*
%TO.P,J1,4,Pin_4*%
%TO.N,/7(SDA)*%
X116799600Y-86390400D03*
%TO.P,J1,5,Pin_5*%
%TO.N,/4(RST)*%
X114259600Y-88930400D03*
%TO.P,J1,6,Pin_6*%
%TO.N,GND*%
X114259600Y-86390400D03*
%TD*%
D12*
%TO.P,J3,1,Pin_1*%
%TO.N,VDD*%
X187985400Y-135966200D03*
D13*
%TO.P,J3,2,Pin_2*%
%TO.N,/9(SCK)*%
X185445400Y-135966200D03*
%TO.P,J3,3,Pin_3*%
%TO.N,/12(SAO2)*%
X182905400Y-135966200D03*
%TO.P,J3,4,Pin_4*%
%TO.N,GND*%
X180365400Y-135966200D03*
%TD*%
D20*
%TO.P,U1,1,CLKIN*%
%TO.N,unconnected-(U1-CLKIN-Pad1)*%
X166796000Y-128177200D03*
%TO.P,U1,2*%
%TO.N,N/C*%
X166796000Y-128677200D03*
%TO.P,U1,3*%
X166796000Y-129177200D03*
%TO.P,U1,4*%
X166796000Y-129677200D03*
%TO.P,U1,5*%
X166796000Y-130177200D03*
%TO.P,U1,6,AUX_DA*%
%TO.N,unconnected-(U1-AUX_DA-Pad6)*%
X166796000Y-130677200D03*
D21*
%TO.P,U1,7,AUX_CL*%
%TO.N,unconnected-(U1-AUX_CL-Pad7)*%
X166076000Y-131397200D03*
%TO.P,U1,8,VLOGIC*%
%TO.N,unconnected-(U1-VLOGIC-Pad8)*%
X165576000Y-131397200D03*
%TO.P,U1,9,AD0*%
%TO.N,unconnected-(U1-AD0-Pad9)*%
X165076000Y-131397200D03*
%TO.P,U1,10,REGOUT*%
%TO.N,unconnected-(U1-REGOUT-Pad10)*%
X164576000Y-131397200D03*
%TO.P,U1,11,FSYNC*%
%TO.N,unconnected-(U1-FSYNC-Pad11)*%
X164076000Y-131397200D03*
%TO.P,U1,12,INT*%
%TO.N,unconnected-(U1-INT-Pad12)*%
X163576000Y-131397200D03*
D20*
%TO.P,U1,13,VDD*%
%TO.N,VDD*%
X162856000Y-130677200D03*
%TO.P,U1,14*%
%TO.N,N/C*%
X162856000Y-130177200D03*
%TO.P,U1,15*%
X162856000Y-129677200D03*
%TO.P,U1,16*%
X162856000Y-129177200D03*
%TO.P,U1,17*%
X162856000Y-128677200D03*
%TO.P,U1,18,GND*%
%TO.N,GND*%
X162856000Y-128177200D03*
D21*
%TO.P,U1,19,RESV@1*%
%TO.N,unconnected-(U1-RESV@1-Pad19)*%
X163576000Y-127457200D03*
%TO.P,U1,20,CPOUT*%
%TO.N,unconnected-(U1-CPOUT-Pad20)*%
X164076000Y-127457200D03*
%TO.P,U1,21,RESV@2*%
%TO.N,unconnected-(U1-RESV@2-Pad21)*%
X164576000Y-127457200D03*
%TO.P,U1,22,RESV*%
%TO.N,unconnected-(U1-RESV-Pad22)*%
X165076000Y-127457200D03*
%TO.P,U1,23,SCL*%
%TO.N,/9(SCK)*%
X165576000Y-127457200D03*
%TO.P,U1,24,SDA*%
%TO.N,/7(SDA)*%
X166076000Y-127457200D03*
%TD*%
D22*
%TO.N,GND*%
X219901600Y-88454800D03*
X164300000Y-108192100D03*
%TO.N,Net-(D1-Pad2)*%
X186961200Y-118091200D03*
%TO.N,Net-(D2-Pad2)*%
X186104200Y-118865400D03*
%TO.N,Net-(D3-Pad2)*%
X201374200Y-123728900D03*
%TO.N,Net-(D4-Pad2)*%
X116730100Y-115907500D03*
%TO.N,Net-(D5-Pad2)*%
X132247500Y-111397900D03*
%TO.N,Net-(D6-Pad2)*%
X132261700Y-107771100D03*
%TO.N,Net-(D7-Pad2)*%
X110948800Y-97842300D03*
%TO.N,Net-(D8-Pad2)*%
X109794900Y-100030000D03*
%TO.N,Net-(D9-Pad2)*%
X216208800Y-98393600D03*
%TO.N,Net-(D10-Pad2)*%
X220085000Y-98509200D03*
%TO.N,Net-(D11-Pad2)*%
X216830500Y-106172000D03*
%TO.N,Net-(D12-Pad2)*%
X225329400Y-104829800D03*
%TO.N,/8(MOSI)*%
X221795500Y-92101600D03*
%TO.N,VDD*%
X158066600Y-126401200D03*
%TO.N,/7(SDA)*%
X227059800Y-82938400D03*
%TO.N,/4(RST)*%
X165385700Y-137729500D03*
%TO.N,/12(SAO2)*%
X183485900Y-132427700D03*
%TO.N,/3(LED Mid Row)*%
X208447800Y-97663100D03*
X119616600Y-100751500D03*
%TD*%
D23*
%TO.N,GND*%
X164300000Y-108192100D02*
X164998400Y-107493700D01*
X162134300Y-128177200D02*
X162134300Y-110357800D01*
X162134300Y-110357800D02*
X164300000Y-108192100D01*
X162856000Y-128177200D02*
X162134300Y-128177200D01*
X164998400Y-107493700D02*
X164998400Y-91668600D01*
X219710000Y-86220000D02*
X219710000Y-88263200D01*
X219710000Y-88263200D02*
X219901600Y-88454800D01*
X164998400Y-91668600D02*
X162483800Y-89154000D01*
X162483800Y-65557400D02*
X162483800Y-66734100D01*
X162483800Y-89154000D02*
X162483800Y-66734100D01*
%TO.N,Net-(D1-Pad2)*%
X200660000Y-104392400D02*
X186961200Y-118091200D01*
X200660000Y-96520000D02*
X200660000Y-104392400D01*
%TO.N,Net-(D2-Pad2)*%
X186104200Y-108535800D02*
X186104200Y-118865400D01*
X200660000Y-93980000D02*
X186104200Y-108535800D01*
%TO.N,Net-(D3-Pad2)*%
X201694900Y-93330100D02*
X201694900Y-123408200D01*
X203585000Y-91440000D02*
X201694900Y-93330100D01*
X201694900Y-123408200D02*
X201374200Y-123728900D01*
%TO.N,Net-(D4-Pad2)*%
X99060000Y-96905000D02*
X116730100Y-114575100D01*
X116730100Y-114575100D02*
X116730100Y-115907500D01*
%TO.N,Net-(D5-Pad2)*%
X116842900Y-111397900D02*
X132247500Y-111397900D01*
X102350000Y-96905000D02*
X116842900Y-111397900D01*
%TO.N,Net-(D6-Pad2)*%
X132261700Y-107771100D02*
X116506100Y-107771100D01*
X116506100Y-107771100D02*
X105640000Y-96905000D01*
%TO.N,Net-(D7-Pad2)*%
X110011500Y-96905000D02*
X110948800Y-97842300D01*
X108930000Y-96905000D02*
X110011500Y-96905000D01*
%TO.N,Net-(D8-Pad2)*%
X112220000Y-97604900D02*
X109794900Y-100030000D01*
X112220000Y-96905000D02*
X112220000Y-97604900D01*
%TO.N,Net-(D9-Pad2)*%
X216619900Y-97982500D02*
X216208800Y-98393600D01*
X218440000Y-97982500D02*
X216619900Y-97982500D01*
%TO.N,Net-(D10-Pad2)*%
X220611700Y-97982500D02*
X220085000Y-98509200D01*
X221730000Y-97982500D02*
X220611700Y-97982500D01*
%TO.N,Net-(D11-Pad2)*%
X225020000Y-97982500D02*
X216830500Y-106172000D01*
%TO.N,Net-(D12-Pad2)*%
X225329400Y-100963100D02*
X225329400Y-104829800D01*
X228310000Y-97982500D02*
X225329400Y-100963100D01*
%TO.N,/8(MOSI)*%
X227330000Y-86220000D02*
X227330000Y-86730500D01*
X227330000Y-86730500D02*
X221958900Y-92101600D01*
X221958900Y-92101600D02*
X221795500Y-92101600D01*
%TO.N,VDD*%
X162856000Y-130677200D02*
X162134300Y-130677200D01*
X219710000Y-81280000D02*
X219710000Y-80801900D01*
X209003200Y-81280000D02*
X219710000Y-81280000D01*
X184309300Y-103111600D02*
X177798400Y-96600700D01*
X228386800Y-74991500D02*
X235921500Y-82526200D01*
X158066600Y-126401200D02*
X147820000Y-116154600D01*
X147820000Y-98923700D02*
X152198400Y-94545300D01*
X162116100Y-64194100D02*
X162483800Y-64194100D01*
X177798400Y-71528100D02*
X177798400Y-91668600D01*
X185374900Y-103111600D02*
X188006200Y-103111600D01*
X147820000Y-103061700D02*
X147820000Y-98923700D01*
X119339600Y-86390400D02*
X120516300Y-86390400D01*
X185374900Y-103111600D02*
X184309300Y-103111600D01*
X162134300Y-130677200D02*
X158066600Y-126609500D01*
X224597500Y-76200000D02*
X225806000Y-74991500D01*
X152198400Y-91704600D02*
X152198400Y-91668600D01*
X177798400Y-96600700D02*
X177798400Y-91668600D01*
X120516300Y-86390400D02*
X137187600Y-103061700D01*
X163660500Y-62649700D02*
X164513700Y-61796500D01*
X168066800Y-61796500D02*
X177798400Y-71528100D01*
X163660500Y-63017400D02*
X163660500Y-62649700D01*
X235921500Y-82526200D02*
X235921500Y-90736000D01*
X152198400Y-91668600D02*
X152198400Y-74111800D01*
X164513700Y-61796500D02*
X168066800Y-61796500D01*
X152198400Y-91704600D02*
X152198400Y-94545300D01*
X224311900Y-76200000D02*
X224597500Y-76200000D01*
X225806000Y-74991500D02*
X228386800Y-74991500D01*
X187985400Y-134789500D02*
X185374900Y-132179000D01*
X158066600Y-126609500D02*
X158066600Y-126401200D01*
X197287100Y-93830700D02*
X197287100Y-92996100D01*
X188006200Y-103111600D02*
X197287100Y-93830700D01*
X187985400Y-135966200D02*
X187985400Y-134789500D01*
X185374900Y-132179000D02*
X185374900Y-103111600D01*
X219710000Y-80801900D02*
X224311900Y-76200000D01*
X197287100Y-92996100D02*
X209003200Y-81280000D01*
X152198400Y-74111800D02*
X162116100Y-64194100D01*
X162483800Y-63017400D02*
X162483800Y-64194100D01*
X235921500Y-90736000D02*
X231600000Y-95057500D01*
X147820000Y-116154600D02*
X147820000Y-103061700D01*
X162483800Y-63017400D02*
X163660500Y-63017400D01*
X137187600Y-103061700D02*
X147820000Y-103061700D01*
%TO.N,/9(SCK)*%
X189028500Y-137142900D02*
X186989800Y-137142900D01*
X173359500Y-123328900D02*
X184820100Y-134789500D01*
X221613600Y-87798800D02*
X202888900Y-106523500D01*
X174273600Y-122414800D02*
X173359500Y-123328900D01*
X160864900Y-132628000D02*
X117976300Y-89739400D01*
X169952900Y-126735500D02*
X168011900Y-126735500D01*
X165023800Y-66734100D02*
X174273600Y-75983900D01*
X221793100Y-84905400D02*
X221613600Y-85084900D01*
X185445400Y-135966200D02*
X186622100Y-135966200D01*
X174273600Y-75983900D02*
X174273600Y-122414800D01*
X186989800Y-137142900D02*
X186622100Y-136775200D01*
X117976300Y-89739400D02*
X117976300Y-88930400D01*
X166542000Y-132628000D02*
X160864900Y-132628000D01*
X165023800Y-65557400D02*
X165023800Y-66734100D01*
X202888900Y-106523500D02*
X202888900Y-123282500D01*
X225271200Y-84905400D02*
X221793100Y-84905400D01*
X226060000Y-85694200D02*
X225271200Y-84905400D01*
X168011900Y-131158100D02*
X166542000Y-132628000D01*
X165576000Y-126735500D02*
X168011900Y-126735500D01*
X226060000Y-86220000D02*
X226060000Y-85694200D01*
X186622100Y-136775200D02*
X186622100Y-135966200D01*
X185445400Y-135966200D02*
X185445400Y-134789500D01*
X165576000Y-127457200D02*
X165576000Y-126735500D01*
X221613600Y-85084900D02*
X221613600Y-87798800D01*
X168011900Y-126735500D02*
X168011900Y-131158100D01*
X202888900Y-123282500D02*
X189028500Y-137142900D01*
X184820100Y-134789500D02*
X185445400Y-134789500D01*
X173359500Y-123328900D02*
X169952900Y-126735500D01*
X116799600Y-88930400D02*
X117976300Y-88930400D01*
%TO.N,/7(SDA)*%
X162755600Y-132120400D02*
X144296900Y-113661700D01*
X118785200Y-87567100D02*
X117976300Y-86758200D01*
X120163900Y-87567100D02*
X118785200Y-87567100D01*
X167531600Y-127848400D02*
X167531600Y-130968200D01*
X144296900Y-111700100D02*
X120163900Y-87567100D01*
X167140400Y-127457200D02*
X167531600Y-127848400D01*
X166379400Y-132120400D02*
X162755600Y-132120400D01*
X167531600Y-130968200D02*
X166379400Y-132120400D01*
X227330000Y-81280000D02*
X227330000Y-82668200D01*
X166076000Y-127457200D02*
X167140400Y-127457200D01*
X227330000Y-82668200D02*
X227059800Y-82938400D01*
X116799600Y-86390400D02*
X117976300Y-86390400D01*
X144296900Y-113661700D02*
X144296900Y-111700100D01*
X117976300Y-86758200D02*
X117976300Y-86390400D01*
%TO.N,/4(RST)*%
X115436300Y-88930400D02*
X115436300Y-89299600D01*
X114259600Y-88930400D02*
X115436300Y-88930400D01*
X181189200Y-138499200D02*
X192792600Y-138499200D01*
X229539900Y-81706200D02*
X227798600Y-79964900D01*
X165385700Y-137729500D02*
X168160600Y-137729500D01*
X121702900Y-95566200D02*
X122396200Y-95566200D01*
X192792600Y-138499200D02*
X231600000Y-99691800D01*
X223520000Y-80784800D02*
X223520000Y-81280000D01*
X177031700Y-131434400D02*
X177388700Y-131791400D01*
X231600000Y-99691800D02*
X231600000Y-97982500D01*
X168160600Y-137729500D02*
X174455700Y-131434400D01*
X224339900Y-79964900D02*
X223520000Y-80784800D01*
X115436300Y-89299600D02*
X121702900Y-95566200D01*
X231600000Y-97982500D02*
X229539900Y-95922400D01*
X229539900Y-95922400D02*
X229539900Y-81706200D01*
X177388700Y-131791400D02*
X177388700Y-134698700D01*
X122396200Y-95566200D02*
X161450000Y-134620000D01*
X161450000Y-134620000D02*
X164769800Y-134620000D01*
X174455700Y-131434400D02*
X177031700Y-131434400D01*
X227798600Y-79964900D02*
X224339900Y-79964900D01*
X177388700Y-134698700D02*
X181189200Y-138499200D01*
%TO.N,/12(SAO2)*%
X174921700Y-71184300D02*
X167931500Y-64194100D01*
X174921700Y-123863500D02*
X174921700Y-71184300D01*
X167563800Y-63017400D02*
X167563800Y-64194100D01*
X184082100Y-136334000D02*
X185343900Y-137595800D01*
X182905400Y-135966200D02*
X184082100Y-135966200D01*
X184082100Y-135966200D02*
X184082100Y-136334000D01*
X183485900Y-132427700D02*
X174921700Y-123863500D01*
X189216700Y-137595800D02*
X203376300Y-123436200D01*
X222250000Y-89448100D02*
X222250000Y-86220000D01*
X203376300Y-123436200D02*
X203376300Y-108321800D01*
X203376300Y-108321800D02*
X222250000Y-89448100D01*
X185343900Y-137595800D02*
X189216700Y-137595800D01*
X167931500Y-64194100D02*
X167563800Y-64194100D01*
%TO.N,/13(SAO1)*%
X227522500Y-76200000D02*
X226879100Y-76200000D01*
X222885000Y-82385900D02*
X220980000Y-84290900D01*
X220980000Y-84290900D02*
X220980000Y-86220000D01*
X234619800Y-82372400D02*
X233694900Y-82372400D01*
X226879100Y-76200000D02*
X222885000Y-80194100D01*
X234619800Y-83674100D02*
X234619800Y-82372400D01*
X222885000Y-80194100D02*
X222885000Y-82385900D01*
X233694900Y-82372400D02*
X227522500Y-76200000D01*
%TO.N,/2(LED Bottom Row)*%
X204500400Y-93064600D02*
X203585000Y-93980000D01*
X220980000Y-81280000D02*
X220980000Y-81768900D01*
X203585000Y-93980000D02*
X203585000Y-96520000D01*
X204500400Y-90530700D02*
X204500400Y-93064600D01*
X220980000Y-81768900D02*
X212218200Y-90530700D01*
X204189900Y-90220200D02*
X201879800Y-90220200D01*
X201879800Y-90220200D02*
X200660000Y-91440000D01*
X212218200Y-90530700D02*
X204500400Y-90530700D01*
X204500400Y-90530700D02*
X204189900Y-90220200D01*
%TO.N,/3(LED Mid Row)*%
X99060000Y-93980000D02*
X102350000Y-93980000D01*
X108930000Y-93980000D02*
X105640000Y-93980000D01*
X119616600Y-100751500D02*
X114315100Y-95450000D01*
X114315100Y-95450000D02*
X110400000Y-95450000D01*
X208447800Y-95530300D02*
X208447800Y-97663100D01*
X222250000Y-81280000D02*
X222250000Y-81728100D01*
X105640000Y-93980000D02*
X102350000Y-93980000D01*
X110400000Y-95450000D02*
X108930000Y-93980000D01*
X222250000Y-81728100D02*
X208447800Y-95530300D01*
%TO.N,/5(LED Top Row)*%
X122116400Y-96243000D02*
X161795100Y-135921700D01*
X181721800Y-136513200D02*
X183256100Y-138047500D01*
X189403800Y-138047500D02*
X212581100Y-114870200D01*
X228310000Y-95057500D02*
X225020000Y-95057500D01*
X225020000Y-95057500D02*
X221730000Y-95057500D01*
X212581100Y-114870200D02*
X212581100Y-100916300D01*
X112220000Y-93980000D02*
X119401600Y-93980000D01*
X212581200Y-100916300D02*
X218440000Y-95057500D01*
X177245400Y-130971600D02*
X181721800Y-135448000D01*
X228310000Y-85266200D02*
X228310000Y-95057500D01*
X212581100Y-100916300D02*
X212581200Y-100916300D01*
X161795100Y-135921700D02*
X166636500Y-135921700D01*
X171586600Y-130971600D02*
X177245400Y-130971600D01*
X224790000Y-81746200D02*
X228310000Y-85266200D01*
X183256100Y-138047500D02*
X189403800Y-138047500D01*
X224790000Y-81280000D02*
X224790000Y-81746200D01*
X119401600Y-93980000D02*
X121664600Y-96243000D01*
X221730000Y-95057500D02*
X218440000Y-95057500D01*
X121664600Y-96243000D02*
X122116400Y-96243000D01*
X166636500Y-135921700D02*
X171586600Y-130971600D01*
X181721800Y-135448000D02*
X181721800Y-136513200D01*
%TD*%
M02*
