%TF.GenerationSoftware,KiCad,Pcbnew,7.99.0-1211-g2ac3f4cc9e*%
%TF.CreationDate,2023-06-01T18:32:40-04:00*%
%TF.ProjectId,adidas,61646964-6173-42e6-9b69-6361645f7063,v0.3*%
%TF.SameCoordinates,Original*%
%TF.FileFunction,Legend,Top*%
%TF.FilePolarity,Positive*%
%FSLAX46Y46*%
G04 Gerber Fmt 4.6, Leading zero omitted, Abs format (unit mm)*
G04 Created by KiCad (PCBNEW 7.99.0-1211-g2ac3f4cc9e) date 2023-06-01 18:32:40*
%MOMM*%
%LPD*%
G01*
G04 APERTURE LIST*
%ADD10C,0.000000*%
%ADD11C,0.120000*%
G04 APERTURE END LIST*
D10*
%TO.C,silkscreen*%
G36*
X220411029Y-121466884D02*
G01*
X219884986Y-122013442D01*
X219235957Y-122667854D01*
X218528651Y-123365982D01*
X217827776Y-124043688D01*
X217449249Y-124402562D01*
X215717275Y-126029949D01*
X114457584Y-126029949D01*
X111837686Y-123463419D01*
X111150748Y-122786614D01*
X110512680Y-122150646D01*
X109949475Y-121581997D01*
X109487128Y-121107148D01*
X109151629Y-120752582D01*
X108968972Y-120544780D01*
X108956246Y-120527741D01*
X108694704Y-120158592D01*
X221640835Y-120158592D01*
X220411029Y-121466884D01*
G37*
G36*
X208343500Y-131778680D02*
G01*
X206438500Y-133034695D01*
X202787967Y-135289969D01*
X198997602Y-137336661D01*
X195082369Y-139168582D01*
X191057232Y-140779540D01*
X186937156Y-142163347D01*
X182737105Y-143313813D01*
X180207904Y-143884736D01*
X179465396Y-144035813D01*
X178727090Y-144180218D01*
X178068477Y-144303557D01*
X177565045Y-144391434D01*
X177477404Y-144405385D01*
X176975070Y-144485551D01*
X176526638Y-144561445D01*
X176244250Y-144613713D01*
X175895000Y-144685408D01*
X175896843Y-143749890D01*
X175925129Y-142349245D01*
X176001799Y-140758172D01*
X176122178Y-139035886D01*
X176281591Y-137241601D01*
X176475363Y-135434534D01*
X176683728Y-133783969D01*
X176957854Y-131773668D01*
X208343500Y-131778680D01*
G37*
G36*
X165218882Y-38052646D02*
G01*
X165466788Y-38308650D01*
X165812019Y-38692892D01*
X166222872Y-39170660D01*
X166411253Y-39395527D01*
X169034266Y-42738695D01*
X171506138Y-46270206D01*
X173810402Y-49961963D01*
X175930591Y-53785868D01*
X177850237Y-57713825D01*
X179552871Y-61717735D01*
X179671007Y-62019396D01*
X181145845Y-66138313D01*
X182396887Y-70334498D01*
X183421818Y-74589444D01*
X184218322Y-78884641D01*
X184784085Y-83201581D01*
X185116790Y-87521755D01*
X185214122Y-91826656D01*
X185073766Y-96097775D01*
X184693406Y-100316602D01*
X184577243Y-101236231D01*
X184369346Y-102799799D01*
X145825220Y-102799799D01*
X145682226Y-101810603D01*
X145217691Y-97734614D01*
X144989292Y-93575832D01*
X144996659Y-89344566D01*
X145239424Y-85051124D01*
X145717216Y-80705815D01*
X146429668Y-76318949D01*
X146632408Y-75276632D01*
X147605849Y-71055258D01*
X148823413Y-66859142D01*
X150275264Y-62708853D01*
X151951569Y-58624960D01*
X153842491Y-54628032D01*
X155938198Y-50738635D01*
X158228853Y-46977340D01*
X160704623Y-43364714D01*
X163355673Y-39921326D01*
X163788746Y-39395527D01*
X164218024Y-38888295D01*
X164595271Y-38459705D01*
X164888785Y-38144471D01*
X165066865Y-37977308D01*
X165100000Y-37959598D01*
X165218882Y-38052646D01*
G37*
G36*
X241264224Y-71042674D02*
G01*
X241039259Y-75275622D01*
X240563338Y-79501924D01*
X239835873Y-83724497D01*
X238856278Y-87946261D01*
X237623963Y-92170133D01*
X236179702Y-96290251D01*
X235913738Y-96966978D01*
X235579026Y-97782305D01*
X235202425Y-98674120D01*
X234810794Y-99580312D01*
X234430991Y-100438769D01*
X234089874Y-101187380D01*
X233814301Y-101764034D01*
X233802475Y-101787737D01*
X233296165Y-102799799D01*
X187939283Y-102799799D01*
X188225254Y-102321155D01*
X188393353Y-102053465D01*
X188673335Y-101622610D01*
X189033835Y-101076233D01*
X189443487Y-100461977D01*
X189716743Y-100055577D01*
X190853614Y-98407566D01*
X191951672Y-96898868D01*
X193051449Y-95480581D01*
X194193474Y-94103806D01*
X195418278Y-92719639D01*
X196766392Y-91279179D01*
X198239495Y-89772564D01*
X199876182Y-88158434D01*
X201418454Y-86706846D01*
X202919401Y-85372519D01*
X204432109Y-84110171D01*
X206009666Y-82874523D01*
X207705160Y-81620293D01*
X208280000Y-81208542D01*
X211778247Y-78872877D01*
X215436096Y-76724540D01*
X219231235Y-74772701D01*
X223141353Y-73026528D01*
X227144138Y-71495192D01*
X231217279Y-70187862D01*
X235338465Y-69113708D01*
X239485384Y-68281900D01*
X239903000Y-68212012D01*
X240382967Y-68130444D01*
X240801099Y-68054691D01*
X241032854Y-68008356D01*
X241337209Y-67940323D01*
X241264224Y-71042674D01*
G37*
G36*
X139822500Y-131773811D02*
G01*
X141902664Y-131774364D01*
X143755237Y-131775515D01*
X145393422Y-131777453D01*
X146830424Y-131780364D01*
X148079447Y-131784436D01*
X149153694Y-131789858D01*
X150066371Y-131796816D01*
X150830680Y-131805499D01*
X151459828Y-131816094D01*
X151967016Y-131828789D01*
X152365450Y-131843772D01*
X152668334Y-131861230D01*
X152888871Y-131881352D01*
X153040267Y-131904324D01*
X153135725Y-131930335D01*
X153188449Y-131959572D01*
X153211643Y-131992223D01*
X153213272Y-131997035D01*
X153265071Y-132244679D01*
X153338425Y-132702400D01*
X153427864Y-133326447D01*
X153527919Y-134073068D01*
X153633119Y-134898514D01*
X153737995Y-135759032D01*
X153837076Y-136610873D01*
X153924893Y-137410284D01*
X153995976Y-138113517D01*
X154039101Y-138602311D01*
X154091390Y-139335713D01*
X154146229Y-140229355D01*
X154198277Y-141188323D01*
X154242192Y-142117704D01*
X154256419Y-142463366D01*
X154285223Y-143275931D01*
X154297803Y-143866121D01*
X154292800Y-144266402D01*
X154268860Y-144509238D01*
X154224624Y-144627095D01*
X154164913Y-144653054D01*
X153979770Y-144626912D01*
X153596352Y-144563706D01*
X153066250Y-144472220D01*
X152441059Y-144361238D01*
X152273000Y-144330942D01*
X147963337Y-143428304D01*
X143733597Y-142295380D01*
X139596554Y-140937286D01*
X135564986Y-139359137D01*
X131651668Y-137566048D01*
X127869375Y-135563136D01*
X124230883Y-133355516D01*
X123255140Y-132711824D01*
X121858197Y-131773668D01*
X137501540Y-131773668D01*
X139822500Y-131773811D01*
G37*
G36*
X166640797Y-131774709D02*
G01*
X168105647Y-131777724D01*
X169475045Y-131782547D01*
X170729488Y-131789015D01*
X171849472Y-131796964D01*
X172815494Y-131806230D01*
X173608050Y-131816649D01*
X174207637Y-131828056D01*
X174594750Y-131840287D01*
X174749887Y-131853178D01*
X174752000Y-131854883D01*
X174686605Y-132012272D01*
X174503670Y-132351700D01*
X174223070Y-132840512D01*
X173864679Y-133446055D01*
X173448371Y-134135674D01*
X172994020Y-134876715D01*
X172521500Y-135636524D01*
X172050687Y-136382446D01*
X171601454Y-137081827D01*
X171193675Y-137702013D01*
X171189113Y-137708844D01*
X170399152Y-138877152D01*
X169664734Y-139929554D01*
X168933876Y-140937290D01*
X168154596Y-141971594D01*
X167274913Y-143103706D01*
X166974635Y-143484472D01*
X165839034Y-144920402D01*
X164360965Y-144920402D01*
X163225364Y-143484472D01*
X162304134Y-142307721D01*
X161499374Y-141250794D01*
X160759101Y-140242454D01*
X160031333Y-139211462D01*
X159264088Y-138086581D01*
X159010886Y-137708844D01*
X158603725Y-137089806D01*
X158154872Y-136391182D01*
X157684200Y-135645625D01*
X157211583Y-134885790D01*
X156756896Y-134144330D01*
X156340014Y-133453900D01*
X155980809Y-132847154D01*
X155699158Y-132356747D01*
X155514933Y-132015332D01*
X155448009Y-131855565D01*
X155448000Y-131854883D01*
X155571749Y-131841918D01*
X155929994Y-131829593D01*
X156503231Y-131818070D01*
X157271958Y-131807515D01*
X158216669Y-131798091D01*
X159317863Y-131789962D01*
X160556034Y-131783293D01*
X161911680Y-131778248D01*
X163365296Y-131774991D01*
X164897380Y-131773686D01*
X165100000Y-131773668D01*
X166640797Y-131774709D01*
G37*
G36*
X89166608Y-68008220D02*
G01*
X89451224Y-68064488D01*
X89884786Y-68142267D01*
X90297000Y-68212012D01*
X94594837Y-69046815D01*
X98827521Y-70126807D01*
X102986513Y-71448320D01*
X107063271Y-73007687D01*
X111049255Y-74801241D01*
X114935924Y-76825316D01*
X118714740Y-79076245D01*
X122377160Y-81550360D01*
X123802702Y-82597973D01*
X125180526Y-83654601D01*
X126450417Y-84674153D01*
X127662358Y-85700578D01*
X128866331Y-86777827D01*
X130112319Y-87949850D01*
X131450303Y-89260598D01*
X131960504Y-89771250D01*
X133295261Y-91133123D01*
X134473755Y-92380672D01*
X135536791Y-93560623D01*
X136525175Y-94719706D01*
X137479714Y-95904648D01*
X138441214Y-97162177D01*
X138594605Y-97368094D01*
X138956358Y-97863982D01*
X139378899Y-98457269D01*
X139839641Y-99114714D01*
X140315999Y-99803077D01*
X140785386Y-100489118D01*
X141225215Y-101139597D01*
X141612901Y-101721274D01*
X141925855Y-102200910D01*
X142141493Y-102545264D01*
X142237227Y-102721096D01*
X142239999Y-102732926D01*
X142115121Y-102739944D01*
X141748969Y-102746759D01*
X141154270Y-102753332D01*
X140343752Y-102759626D01*
X139330140Y-102765603D01*
X138126163Y-102771226D01*
X136744545Y-102776457D01*
X135198015Y-102781259D01*
X133499299Y-102785594D01*
X131661123Y-102789425D01*
X129696215Y-102792713D01*
X127617300Y-102795422D01*
X125437107Y-102797514D01*
X123168361Y-102798952D01*
X120823789Y-102799697D01*
X119571917Y-102799799D01*
X96903834Y-102799799D01*
X96409486Y-101810603D01*
X96174236Y-101322484D01*
X95874497Y-100675059D01*
X95544764Y-99944117D01*
X95219533Y-99205445D01*
X95140180Y-99021971D01*
X93533573Y-94983437D01*
X92160526Y-90876196D01*
X91024488Y-86715779D01*
X90128910Y-82517712D01*
X89477240Y-78297524D01*
X89072930Y-74070746D01*
X88938693Y-71106357D01*
X88861717Y-67940052D01*
X89166608Y-68008220D01*
G37*
G36*
X170509414Y-108416083D02*
G01*
X175667122Y-108416698D01*
X180575419Y-108417730D01*
X185236599Y-108419182D01*
X189652955Y-108421060D01*
X193826782Y-108423368D01*
X197760375Y-108426111D01*
X201456026Y-108429293D01*
X204916030Y-108432920D01*
X208142681Y-108436996D01*
X211138273Y-108441525D01*
X213905101Y-108446514D01*
X216445459Y-108451965D01*
X218761640Y-108457884D01*
X220855938Y-108464276D01*
X222730648Y-108471145D01*
X224388064Y-108478497D01*
X225830480Y-108486335D01*
X227060190Y-108494665D01*
X228079489Y-108503491D01*
X228890669Y-108512817D01*
X229496026Y-108522650D01*
X229897853Y-108532993D01*
X230098444Y-108543851D01*
X230124000Y-108549564D01*
X230055178Y-108708853D01*
X229862421Y-109046098D01*
X229566292Y-109529309D01*
X229187354Y-110126500D01*
X228746169Y-110805682D01*
X228263301Y-111534868D01*
X227759311Y-112282068D01*
X227254764Y-113015296D01*
X227235640Y-113042763D01*
X226279899Y-114414874D01*
X103933166Y-114414874D01*
X102842266Y-112851306D01*
X102370919Y-112166733D01*
X101892212Y-111455510D01*
X101427764Y-110751464D01*
X100999192Y-110088423D01*
X100628112Y-109500212D01*
X100336142Y-109020659D01*
X100144899Y-108683591D01*
X100076000Y-108522834D01*
X100076000Y-108522613D01*
X100201747Y-108515963D01*
X100573980Y-108509418D01*
X101185185Y-108502990D01*
X102027847Y-108496692D01*
X103094452Y-108490535D01*
X104377485Y-108484533D01*
X105869433Y-108478698D01*
X107562780Y-108473042D01*
X109450014Y-108467577D01*
X111523619Y-108462315D01*
X113776081Y-108457270D01*
X116199886Y-108452453D01*
X118787519Y-108447877D01*
X121531467Y-108443553D01*
X124424215Y-108439495D01*
X127458249Y-108435715D01*
X130626055Y-108432224D01*
X133920117Y-108429036D01*
X137332923Y-108426163D01*
X140856957Y-108423617D01*
X144484706Y-108421410D01*
X148208654Y-108419554D01*
X152021289Y-108418063D01*
X155915095Y-108416948D01*
X159882558Y-108416222D01*
X163916165Y-108415896D01*
X165100000Y-108415879D01*
X170509414Y-108416083D01*
G37*
D11*
%TO.C,D2*%
X162868800Y-127490600D02*
X162868800Y-129760600D01*
X162868800Y-129760600D02*
X166753800Y-129760600D01*
X166753800Y-127490600D02*
X162868800Y-127490600D01*
%TO.C,D5*%
X143686500Y-116187600D02*
X143686500Y-118457600D01*
X143686500Y-118457600D02*
X147571500Y-118457600D01*
X147571500Y-116187600D02*
X143686500Y-116187600D01*
%TO.C,D12*%
X221644400Y-105189400D02*
X221644400Y-107459400D01*
X221644400Y-107459400D02*
X225529400Y-107459400D01*
X225529400Y-105189400D02*
X221644400Y-105189400D01*
%TO.C,D4*%
X114123400Y-115959000D02*
X114123400Y-118229000D01*
X114123400Y-118229000D02*
X118008400Y-118229000D01*
X118008400Y-115959000D02*
X114123400Y-115959000D01*
%TO.C,D6*%
X182019700Y-115628800D02*
X182019700Y-117898800D01*
X182019700Y-117898800D02*
X185904700Y-117898800D01*
X185904700Y-115628800D02*
X182019700Y-115628800D01*
%TO.C,D10*%
X162151600Y-105011600D02*
X162151600Y-107281600D01*
X162151600Y-107281600D02*
X166036600Y-107281600D01*
X166036600Y-105011600D02*
X162151600Y-105011600D01*
%TO.C,D8*%
X104446000Y-104554400D02*
X104446000Y-106824400D01*
X104446000Y-106824400D02*
X108331000Y-106824400D01*
X108331000Y-104554400D02*
X104446000Y-104554400D01*
%TO.C,D9*%
X130633400Y-104833800D02*
X130633400Y-107103800D01*
X130633400Y-107103800D02*
X134518400Y-107103800D01*
X134518400Y-104833800D02*
X130633400Y-104833800D01*
%TO.C,D11*%
X192736200Y-105037000D02*
X192736200Y-107307000D01*
X192736200Y-107307000D02*
X196621200Y-107307000D01*
X196621200Y-105037000D02*
X192736200Y-105037000D01*
%TO.C,D3*%
X197689200Y-127846200D02*
X197689200Y-130116200D01*
X197689200Y-130116200D02*
X201574200Y-130116200D01*
X201574200Y-127846200D02*
X197689200Y-127846200D01*
%TO.C,D7*%
X211710200Y-116035200D02*
X211710200Y-118305200D01*
X211710200Y-118305200D02*
X215595200Y-118305200D01*
X215595200Y-116035200D02*
X211710200Y-116035200D01*
%TO.C,D1*%
X129224800Y-127744600D02*
X129224800Y-130014600D01*
X129224800Y-130014600D02*
X133109800Y-130014600D01*
X133109800Y-127744600D02*
X129224800Y-127744600D01*
%TD*%
M02*
